<svg xmlns:mydata="http://www.w3.org/2000/svg" mydata:contrastcolor="cdbea7" mydata:template="Contrast" mydata:presentation="2.5" mydata:layouttype="undefined" mydata:specialfontid="undefined" mydata:id1="826" mydata:id2="826" mydata:companyname="Flash Delivery" mydata:companytagline="" version="1.1" xmlns="http://www.w3.org/2000/svg" xmlns:xlink="http://www.w3.org/1999/xlink" viewBox="0 0 550 470"><g fill="none" fill-rule="none" stroke="none" stroke-width="1" stroke-linecap="butt" stroke-linejoin="miter" stroke-miterlimit="10" stroke-dasharray="" stroke-dashoffset="0" font-family="none" font-weight="none" font-size="none" text-anchor="none" style="mix-blend-mode: normal"><g data-paper-data="{&quot;isGlobalGroup&quot;:true}"><g data-paper-data="{&quot;stacked&quot;:true,&quot;isPrimaryText&quot;:true}" fill-rule="nonzero"><path d="M165.98145,279.79778c-0.079,0 -0.158,0 -0.158,0c0,3.87095 0,7.6629 0,11.45485c0,11.61285 -0.079,16.27378 -0.079,16.27378c0,1.26398 0.316,1.73798 1.34298,1.73798c0,0 1.73798,-0.079 4.26594,-0.079c2.21197,0 4.42394,0.079 6.55691,0.079c4.66094,0 3.39695,3.23896 3.79195,-23.22569c0,-2.76496 -0.94799,-1.10599 14.14081,-2.36997c2.05397,-0.158 2.84396,-0.316 2.84396,-5.45093c0,-6.87291 -1.18498,-6.87291 -5.13493,-6.95191c-2.36997,-0.079 -4.73994,-0.158 -7.1889,-0.158c-1.65898,0 -3.63395,0.079 -3.63395,0.079c-1.18498,0 -1.10599,0.079 -1.10599,-6.08292c0,-4.02895 -0.158,-4.02895 1.26398,-4.02895c2.52797,0 8.76888,0.237 14.14081,0.237c11.53385,0 11.05985,-0.316 11.53385,-2.29097c0.237,-1.02699 0.237,-1.42198 0.237,-5.92492c0,-3.87095 0.158,-5.13493 -2.52797,-5.13493c0,0 -8.21589,0.63199 -36.18152,0.63199c-1.50098,0 -2.84396,-0.158 -2.84396,-0.158c-0.78999,0 -1.26398,0.55299 -1.26398,1.42198c-0.158,3.00196 -0.316,6.00392 -0.316,9.08488c0,4.81894 0.237,15.56279 0.316,20.85572z" data-paper-data="{&quot;glyphName&quot;:&quot;F&quot;,&quot;glyphIndex&quot;:0,&quot;firstGlyphOfWord&quot;:true,&quot;word&quot;:1,&quot;line&quot;:1,&quot;firstGlyphOfFirstLine&quot;:true}" fill="#882426" id="path-id-93261" data-original-fill="#882426"></path><path d="M228.78562,273.00387c0.079,-2.36997 0.39499,-16.51078 0.39499,-18.88075c0,-5.60893 0.316,-5.84592 -4.18694,-5.84592c-2.44897,0 -4.89793,0.237 -7.2679,0.237c-1.34298,0 -2.76496,-0.079 -2.76496,-0.079c-1.10599,0 -1.42198,0.39499 -1.42198,1.57998c0,0 0.63199,8.13689 0.63199,40.52646c0,3.31796 0,6.71491 0,10.03287c0,3.23896 0,5.13493 0,5.13493c0,1.34298 -0.158,1.65898 -0.158,2.36997c0,0.86899 0.47399,1.02699 1.81698,1.02699c1.57998,0 3.55495,0 5.29293,0c2.29097,0 3.71295,0.079 8.92688,0.079c29.46661,0 27.33364,1.26398 27.33364,-5.21393c0,-8.76888 3.23896,-7.5049 -25.91165,-7.5049c-0.237,0 -0.55299,0 -0.78999,0c-1.97497,0 -1.89597,0 -1.89597,-1.57998c0,0 0,0.63199 0,-17.14277c0,-1.57998 0,-3.15996 0,-4.73994z" data-paper-data="{&quot;glyphName&quot;:&quot;L&quot;,&quot;glyphIndex&quot;:1,&quot;word&quot;:1,&quot;line&quot;:1}" fill="#882426" id="path-id-65830" data-original-fill="#882426"></path><path d="M298.22569,309.10639v0c37.12951,0 35.70752,0.86899 35.70752,-2.29097c0,0 -0.079,-0.47399 -0.079,-2.76496c0,-8.84788 0.39499,-12.16584 0.39499,-22.3567c0,-10.19086 0.237,-10.11187 -2.76496,-10.11187c-8.37389,0 -10.58586,-0.39499 -23.30469,-0.39499c-1.42198,0 -1.50098,-0.237 -1.50098,-2.52797c0,-1.81698 0.237,-3.71295 0.63199,-5.52993c0.316,-1.65898 0.55299,-1.97497 2.29097,-2.05397c4.34494,-0.316 8.61089,-0.71099 12.95583,-0.71099c13.42982,0 12.48183,0.71099 12.48183,-4.18694c0,-1.65898 -0.079,-3.23896 -0.316,-4.81894c-0.63199,-4.34494 0.316,-2.21197 -17.69576,-3.23896c-7.97889,-0.47399 -15.95779,-0.158 -23.93668,0.316c-2.52797,0.158 -2.92296,0.55299 -2.92296,3.63395c0,31.75758 0.158,32.54757 3.00196,32.54757c0,0 2.44897,-0.079 6.39891,-0.079c2.44897,0 4.97693,0 7.5049,0c5.84592,0 9.79587,-0.316 9.79587,-0.316c1.34298,0 1.18498,-0.237 1.18498,10.82286c0,2.60697 4.58194,1.81698 -53.00829,1.81698c-0.316,0 -0.63199,0.079 -1.02699,0.079c-0.78999,0 -1.81698,-0.316 -1.81698,1.10599c0,11.69184 -0.63199,11.05985 3.39695,11.05985zM283.76888,292.27962c2.76496,0 1.50098,-17.06377 1.50098,-18.72275c0,-3.15996 0,-6.24092 0,-9.40087c0,-10.42786 0.39499,-9.47987 -1.57998,-9.47987c-22.11971,0 -21.01372,0.237 -21.01372,1.10599c-0.71099,8.13689 -0.55299,9.08488 1.26398,9.08488c-0.079,0 1.50098,0 5.68792,0c1.02699,0 1.50098,-0.55299 1.57998,-1.57998c0.316,-2.36997 0.316,-1.81698 3.94995,-1.81698c0.86899,0 1.18498,0.39499 1.18498,1.26398c0,0 -0.079,1.26398 -0.079,3.08096c0,1.18498 0,2.92296 0,3.55495c0,1.65898 0.55299,1.26398 -11.61285,1.50098c-2.05397,0 -2.21197,-2.52797 -2.21197,19.43374c0,1.97497 -1.18498,1.97497 21.32972,1.97497zM272.70903,278.3758c4.34494,0 3.79195,-0.55299 3.79195,2.44897c0,2.92296 0.237,3.08096 -3.55495,3.08096c-1.02699,0 -1.26398,-0.079 -1.26398,-2.21197c0,-0.079 0,-0.39499 0,-0.316c-0.316,-2.76496 -0.316,-3.00196 1.02699,-3.00196z" data-paper-data="{&quot;glyphName&quot;:&quot;&quot;,&quot;glyphIndex&quot;:2,&quot;word&quot;:1,&quot;line&quot;:1}" fill="#882426" id="path-id-50752" data-original-fill="#882426"></path><path d="M384.25554,278.4548c0.079,0 0.079,0 0.079,0c0,-3.31796 0,-6.63591 0,-9.95387c0,-22.7517 -0.079,-20.61873 -3.79195,-20.61873c-5.92492,0 -7.89989,0.158 -9.95387,0.63199c-2.60697,0.63199 -2.13297,-0.55299 -2.13297,21.80371c0,0.158 0,0.39499 0,0.39499c0,0.63199 -0.237,0.94799 -0.94799,0.94799c0,0 -0.86899,0 -2.05397,0c-4.50294,0 -8.76888,0 -8.76888,0c-0.55299,0 -0.86899,-0.237 -0.86899,-0.78999c0,0 0,-0.079 0,-0.158c0,-25.04267 -0.237,-22.7517 -3.71295,-22.7517c-7.7419,0 -12.16584,-0.079 -12.16584,2.68596v0.079c0,0 -0.158,0.237 -0.158,18.01176c0,42.58043 0.158,40.36846 2.76496,40.36846c2.29097,0 8.92688,-0.316 11.21785,-0.39499c2.29097,-0.158 1.81698,0.158 2.05397,-22.4357c0,-1.50098 0,-1.57998 1.50098,-1.57998c0,0 0.94799,0 1.81698,0c4.89793,0 8.05789,0 8.05789,0c1.81698,0 1.34298,-1.81698 1.73798,21.72471c0.079,2.13297 0.47399,2.68596 2.44897,2.68596c2.29097,0 9.87487,-0.316 10.90185,-0.39499c1.73798,-0.079 1.97497,-1.18498 1.97497,-3.00196c0,-0.079 0,-0.237 0,-0.39499c0,0 0,-5.45093 0,-17.85376c0,-3.00196 0,-6.00392 0,-9.00588z" data-paper-data="{&quot;glyphName&quot;:&quot;H&quot;,&quot;glyphIndex&quot;:3,&quot;lastGlyphOfWord&quot;:true,&quot;word&quot;:1,&quot;line&quot;:1,&quot;lastGlyphOfFirstLine&quot;:true}" fill="#882426" id="path-id-50951" data-original-fill="#882426"></path><path d="M165.99901,334.599c0,0.0953 -0.33355,11.19792 -0.33355,12.24623c0,7.62411 0.52416,7.48116 2.33488,7.52881c3.24025,0.04765 5.38453,0.23825 7.86237,0.23825c7.09996,0 16.77305,-1.90603 17.1066,-8.72008c0.1906,-3.24025 0.33355,-6.4805 0.33355,-9.67309c0,-12.96099 1.00066,-19.25088 -17.72606,-19.25088c-11.29322,0 -9.57779,-1.14362 -9.57779,10.67376c0,2.33488 0,4.62212 0,6.957zM175.95801,330.02454c0,-5.09863 -0.14295,-5.00332 0.57181,-5.00332c4.86037,0 5.57513,2.38254 5.90869,4.71742c0.33355,2.62079 0.61946,5.43218 0.61946,8.10062c0,4.28856 -0.76241,7.52881 -6.6711,7.52881c-0.57181,0 -0.42886,0.38121 -0.42886,-9.48249c0,-0.23825 0,-0.47651 0,-0.66711v0c0,-1.71543 0,-3.43085 0,-5.19393z" data-paper-data="{&quot;glyphName&quot;:&quot;D&quot;,&quot;glyphIndex&quot;:4,&quot;firstGlyphOfWord&quot;:true,&quot;word&quot;:2,&quot;line&quot;:2,&quot;firstGlyphOfSecondLine&quot;:true}" fill="#323030" id="path-id-73281" data-original-fill="#323030"></path><path d="M196.35251,336.21913c-0.04765,0 -0.04765,0 -0.04765,0c0,0.33355 0,0.66711 0,1.04832c0,0.85771 -0.0953,15.00997 -0.0953,15.62943c0,0.85771 0.1906,1.09597 0.95301,1.09597c0,0 1.19127,-0.04765 2.38254,-0.04765c4.05031,0 8.10062,0.04765 12.10328,0.04765c11.57912,0 10.86436,0.57181 10.86436,-2.85904c0,-1.14362 -0.04765,-2.28723 -0.0953,-3.4785c-0.04765,-1.57247 -1.23892,-1.52482 -2.23958,-1.52482c0,0 -8.95833,0.23825 -13.58045,0.23825c-0.81006,0 -0.81006,-0.0953 -0.81006,-0.95301c0,-7.14761 -0.14295,-6.4805 1.00066,-6.4805c9.72074,-0.14295 9.29189,-0.1906 9.29189,-3.71675c0,-4.47917 -0.0953,-4.24091 -7.43351,-4.24091c-1.04832,0 -2.23958,0.04765 -2.23958,0.04765c-0.71476,0 -0.61946,0.23825 -0.61946,-5.38453c0,-0.52416 0.1906,-0.71476 0.66711,-0.71476c0,0 0.23825,0 0.42886,0c0.14295,0 0.23825,0 0.38121,0c0,0 4.28856,0.14295 7.19526,0.14295c7.67176,0 7.24291,-0.1906 7.57646,-1.33422c0.14295,-0.61946 0.14295,-0.76241 0.14295,-3.6691c0,-2.33488 0.0953,-3.04965 -1.57247,-3.04965c0,0 -5.47983,0.38121 -21.68107,0.38121c-0.95301,0 -1.81073,-0.0953 -1.81073,-0.0953c-0.47651,0 -0.76241,0.33355 -0.76241,0.90536c-0.0953,1.90603 -0.1906,3.76441 -0.1906,5.62278c0,3.00199 0.14295,9.19659 0.1906,12.38918z" data-paper-data="{&quot;glyphName&quot;:&quot;E&quot;,&quot;glyphIndex&quot;:5,&quot;word&quot;:2,&quot;line&quot;:2}" fill="#323030" id="path-id-28055" data-original-fill="#323030"></path><path d="M234.61603,332.12117c0.04765,-1.42952 0.23825,-9.959 0.23825,-11.38852c0,-3.3832 0.1906,-3.52615 -2.52549,-3.52615c-1.47717,0 -2.95434,0.14295 -4.38386,0.14295c-0.81006,0 -1.66777,-0.04765 -1.66777,-0.04765c-0.66711,0 -0.85771,0.23825 -0.85771,0.95301c0,0 0.38121,4.90802 0.38121,24.44481c0,2.00133 0,4.05031 0,6.05164c0,1.95368 0,3.0973 0,3.0973c0,0.81006 -0.0953,1.00066 -0.0953,1.42952c0,0.52416 0.2859,0.61946 1.09597,0.61946c0.95301,0 2.14428,0 3.1926,0c1.38187,0 2.23958,0.04765 5.38453,0.04765c17.77371,0 16.48714,0.76241 16.48714,-3.14495c0,-5.28923 1.95368,-4.52682 -15.62943,-4.52682c-0.14295,0 -0.33355,0 -0.47651,0c-1.19127,0 -1.14362,0 -1.14362,-0.95301c0,0 0,0.38121 0,-10.3402c0,-0.95301 0,-1.90603 0,-2.85904z" data-paper-data="{&quot;glyphName&quot;:&quot;L&quot;,&quot;glyphIndex&quot;:6,&quot;word&quot;:2,&quot;line&quot;:2}" fill="#323030" id="path-id-6080" data-original-fill="#323030"></path><path d="M255.43939,317.15885c-1.33422,0.04765 -0.2859,34.49911 -0.2859,34.59441c0,0.33355 0,0.61946 0,0.95301c0,0.85771 0.1906,1.47717 1.09597,1.47717c0,0 0.04765,0 0.0953,0c1.23892,0 2.43019,0.0953 3.62145,0.0953c5.05097,0 4.19326,-0.23825 4.28856,-8.10062c0.14295,-6.5758 0.2859,-13.15159 0.2859,-19.77504c0,-9.72074 0.85771,-9.38719 -5.28923,-9.38719c-1.62012,0 -3.81206,0.14295 -3.81206,0.14295z" data-paper-data="{&quot;glyphName&quot;:&quot;I&quot;,&quot;glyphIndex&quot;:7,&quot;word&quot;:2,&quot;line&quot;:2}" fill="#323030" id="path-id-16549" data-original-fill="#323030"></path><path d="M281.36137,334.26545c-0.23825,-0.14295 -4.47917,-15.72473 -4.57447,-15.96299c-0.33355,-1.23892 -0.66711,-1.28657 -6.33754,-1.28657c-1.09597,0 -3.00199,-0.0953 -3.00199,0.71476c0,1.14362 7.86237,31.35416 8.57713,35.21387c0.1906,1.04832 0.81006,0.76241 5.81339,0.76241c5.52748,0 4.19326,0.47651 5.05097,-2.85904c4.81272,-19.10793 8.10062,-31.73537 8.10062,-33.16489c0,-0.33355 -0.14295,-0.42886 -0.71476,-0.52416c-0.33355,-0.0953 -0.61946,-0.14295 -2.62079,-0.14295c-5.86104,0 -5.62278,-0.04765 -6.19459,2.04898c-2.43019,8.81538 -2.23958,8.19592 -4.09796,15.20057z" data-paper-data="{&quot;glyphName&quot;:&quot;V&quot;,&quot;glyphIndex&quot;:8,&quot;word&quot;:2,&quot;line&quot;:2}" fill="#323030" id="path-id-62693" data-original-fill="#323030"></path><path d="M298.03912,336.21913c-0.04765,0 -0.04765,0 -0.04765,0c0,0.33355 0,0.66711 0,1.04832c0,0.85771 -0.0953,15.00997 -0.0953,15.62943c0,0.85771 0.1906,1.09597 0.95301,1.09597c0,0 1.19127,-0.04765 2.38254,-0.04765c4.05031,0 8.10062,0.04765 12.10328,0.04765c11.57912,0 10.86436,0.57181 10.86436,-2.85904c0,-1.14362 -0.04765,-2.28723 -0.0953,-3.4785c-0.04765,-1.57247 -1.23892,-1.52482 -2.23958,-1.52482c0,0 -8.95833,0.23825 -13.58045,0.23825c-0.81006,0 -0.81006,-0.0953 -0.81006,-0.95301c0,-7.14761 -0.14295,-6.4805 1.00066,-6.4805c9.72074,-0.14295 9.29189,-0.1906 9.29189,-3.71675c0,-4.47917 -0.0953,-4.24091 -7.43351,-4.24091c-1.04832,0 -2.23958,0.04765 -2.23958,0.04765c-0.71476,0 -0.61946,0.23825 -0.61946,-5.38453c0,-0.52416 0.1906,-0.71476 0.66711,-0.71476c0,0 0.23825,0 0.42886,0c0.14295,0 0.23825,0 0.38121,0c0,0 4.28856,0.14295 7.19526,0.14295c7.67176,0 7.24291,-0.1906 7.57646,-1.33422c0.14295,-0.61946 0.14295,-0.76241 0.14295,-3.6691c0,-2.33488 0.0953,-3.04965 -1.57247,-3.04965c0,0 -5.47983,0.38121 -21.68107,0.38121c-0.95301,0 -1.81073,-0.0953 -1.81073,-0.0953c-0.47651,0 -0.76241,0.33355 -0.76241,0.90536c-0.0953,1.90603 -0.1906,3.76441 -0.1906,5.62278c0,3.00199 0.14295,9.19659 0.1906,12.38918z" data-paper-data="{&quot;glyphName&quot;:&quot;E&quot;,&quot;glyphIndex&quot;:9,&quot;word&quot;:2,&quot;line&quot;:2}" fill="#323030" id="path-id-4814" data-original-fill="#323030"></path><path d="M346.16633,339.03052c5.38453,-1.95368 8.62478,-5.28923 8.62478,-11.15026c0,-5.33688 -4.47917,-10.81671 -13.77105,-10.81671c0,0 -0.2859,0.0953 -12.34153,0.33355c-1.71543,0.04765 -1.57247,-1.90603 -1.57247,30.40115c0,1.23892 0.0953,2.43019 0.0953,3.6691c0,0.66711 -0.04765,1.38187 -0.04765,1.38187c0,0.71476 0.2859,1.04832 0.85771,1.04832c0,0 1.52482,-0.1906 3.71675,-0.1906c1.09597,0 2.14428,0 3.24025,0c1.14362,0 1.85838,0.04765 1.85838,-1.19127c0,0 -0.0953,-1.57247 -0.0953,-3.81206c0,-1.85838 0.04765,-3.76441 0.04765,-5.62278c0,-0.85771 -0.04765,-1.00066 -0.04765,-1.00066c0,-0.1906 0.04765,-0.38121 0.23825,-0.57181c10.00665,13.8187 5.67043,12.34153 16.67775,12.34153c0.61946,0 0.95301,-0.14295 0.95301,-0.52416c0,-0.47651 0.23825,0.04765 -8.43417,-14.29521zM338.63752,331.0252c-0.76241,0 -1.28657,0 -1.28657,0c-0.47651,0 -0.71476,-0.1906 -0.71476,-0.71476c0,0 0,-0.04765 0,-0.0953c0,-2.00133 -0.04765,-3.90736 -0.04765,-3.90736c0,-0.85771 0.23825,-0.71476 5.43218,-0.71476c0.33355,0 0.61946,0 0.95301,0c0.81006,0 2.33488,1.00066 2.33488,3.04965c0,1.19127 -0.71476,2.33488 -2.04898,2.33488c0.14295,0 -4.47917,0.04765 -4.62212,0.04765z" data-paper-data="{&quot;glyphName&quot;:&quot;R&quot;,&quot;glyphIndex&quot;:10,&quot;word&quot;:2,&quot;line&quot;:2}" fill="#323030" id="path-id-99031" data-original-fill="#323030"></path><path d="M370.94469,337.26744c-0.61946,-0.47651 -1.38187,-2.38254 -3.1926,-5.57513c-0.71476,-1.23892 -0.42886,-1.47717 -0.42886,-6.71875c0,-8.33887 -0.04765,-7.76706 -0.85771,-7.76706c-0.66711,0 -6.05164,0.1906 -7.52881,0.23825c-1.52482,0.04765 -1.28657,-1.47717 -1.28657,13.3422c0,0.71476 -0.57181,-0.1906 7.81472,10.95966c0.71476,0.90536 0.52416,1.57247 0.52416,3.81206c0,8.95833 0.0953,8.38652 1.52482,8.43417c0.95301,0 1.95368,0.04765 2.90669,0.04765c5.09863,0 5.81339,0.0953 5.81339,-1.09597c0,-0.0953 -0.38121,-8.67243 -0.38121,-8.76773c0,-3.0973 8.48183,-10.86436 8.48183,-13.86636c0,-0.47651 -0.04765,-0.52416 -0.04765,-1.19127c0,-12.00798 0.2859,-12.29388 -1.38187,-12.29388c-0.14295,0 -3.4785,0.0953 -6.90935,0.2859c-1.09597,0.04765 -1.19127,0.0953 -1.19127,1.09597l0.0953,12.34153c0,0.61946 0.23825,0.0953 -3.95501,6.71875z" data-paper-data="{&quot;glyphName&quot;:&quot;Y&quot;,&quot;glyphIndex&quot;:11,&quot;lastGlyphOfWord&quot;:true,&quot;word&quot;:2,&quot;line&quot;:2,&quot;lastGlyphOfSecondLine&quot;:true}" fill="#323030" id="path-id-72937" data-original-fill="#323030"></path></g><g data-paper-data="{&quot;fillRule&quot;:&quot;evenodd&quot;,&quot;isIcon&quot;:&quot;true&quot;,&quot;iconType&quot;:&quot;icon&quot;,&quot;rawIconId&quot;:&quot;157109&quot;,&quot;selectedEffects&quot;:{&quot;container&quot;:&quot;&quot;,&quot;transformation&quot;:&quot;&quot;,&quot;pattern&quot;:&quot;&quot;},&quot;bounds&quot;:{&quot;x&quot;:167.96085987785648,&quot;y&quot;:115.38769998049733,&quot;width&quot;:214.078280244287,&quot;height&quot;:107.13673038461116},&quot;iconStyle&quot;:&quot;standalone&quot;}" fill="#882426" fill-rule="evenodd"><path d="M369.70889,136.98408c-0.90471,-2.25939 -3.09268,-3.74026 -5.52587,-3.74026h-23.80817v-11.90408c0,-3.28791 -2.66413,-5.95204 -5.95204,-5.95204h-100.23238c-3.28791,0 -5.95204,2.66413 -5.95204,5.95204v11.90408h-30.71254c-7.67576,0 -7.67576,11.90408 0,11.90408h30.71254v11.90408h-42.61662c-7.67576,0 -7.67576,11.90408 0,11.90408h42.61662v35.71225c0,3.28791 2.66413,5.95204 5.95204,5.95204h12.80166c2.29986,6.90675 8.81378,11.90408 16.48239,11.90408c7.66862,0 14.18253,-4.99734 16.48239,-11.90408h50.3638c2.29986,6.90675 8.81378,11.90408 16.48239,11.90408c7.66862,0 14.18253,-4.99734 16.48239,-11.90408h12.80166c3.28791,0 5.95204,-2.66413 5.95204,-5.95204v-35.71225c0,-0.7571 -0.14523,-1.50706 -0.42617,-2.21178zM328.47076,198.71629h-48.86388c-2.56176,-6.40677 -8.82092,-10.95175 -16.13242,-10.95175c-7.31149,0 -13.57066,4.5426 -16.13479,10.95175h-7.1972v-29.76021h16.9038c7.67576,0 7.67576,-11.90408 0,-11.90408h-16.9038v-11.90408h40.71196c7.67576,0 7.67576,-11.90408 0,-11.90408h-40.71196v-5.95204h88.3283zM370.13506,198.71629h-7.19959c-2.56176,-6.40677 -8.82092,-10.95175 -16.13242,-10.95175c-2.2713,0 -4.43784,0.44997 -6.4282,1.24755v-43.86417h19.77983l2.38082,5.95204h-10.25655c-3.28791,0 -5.95204,2.66413 -5.95204,5.95204v11.90408c0,3.28791 2.66413,5.95204 5.95204,5.95204h17.85613zM215.38197,180.86016h-41.66429c-7.67576,0 -7.67576,11.90408 0,11.90408h41.66429c3.28791,0 5.95204,-2.66413 5.95204,-5.95204c0,-3.28791 -2.66413,-5.95204 -5.95204,-5.95204zM263.47446,210.62037c-3.02125,0 -5.47588,-2.45462 -5.47588,-5.47588c0,-3.02125 2.457,-5.47588 5.47588,-5.47588c3.01888,0 5.47588,2.45462 5.47588,5.47588c0,3.02125 -2.457,5.47588 -5.47588,5.47588zM346.80305,210.62037c-3.02125,0 -5.47588,-2.45462 -5.47588,-5.47588c0,-3.02125 2.457,-5.47588 5.47588,-5.47588c3.01888,0 5.47588,2.45462 5.47588,5.47588c0,3.02125 -2.457,5.47588 -5.47588,5.47588z" data-paper-data="{&quot;isPathIcon&quot;:true}" id="path-id-33849"></path></g></g></g><rect data-path-id="path-id-33849" class="invisible-bbox" x="168" y="115" fill="transparent" width="214" height="107"></rect><rect data-path-id="path-id-50752" class="invisible-bbox" x="262" y="248" fill="transparent" width="73" height="61"></rect><rect data-path-id="path-id-50951" class="invisible-bbox" x="340" y="248" fill="transparent" width="45" height="61"></rect><rect data-path-id="path-id-65830" class="invisible-bbox" x="214" y="248" fill="transparent" width="44" height="61"></rect><rect data-path-id="path-id-93261" class="invisible-bbox" x="166" y="248" fill="transparent" width="43" height="61"></rect><rect data-path-id="path-id-73281" class="invisible-bbox" x="166" y="317" fill="transparent" width="28" height="38"></rect><rect data-path-id="path-id-62693" class="invisible-bbox" x="267" y="317" fill="transparent" width="28" height="37"></rect><rect data-path-id="path-id-99031" class="invisible-bbox" x="327" y="317" fill="transparent" width="28" height="37"></rect><rect data-path-id="path-id-6080" class="invisible-bbox" x="225" y="317" fill="transparent" width="27" height="37"></rect><rect data-path-id="path-id-72937" class="invisible-bbox" x="358" y="317" fill="transparent" width="27" height="37"></rect><rect data-path-id="path-id-28055" class="invisible-bbox" x="196" y="317" fill="transparent" width="26" height="37"></rect><rect data-path-id="path-id-4814" class="invisible-bbox" x="298" y="317" fill="transparent" width="26" height="37"></rect><rect data-path-id="path-id-16549" class="invisible-bbox" x="255" y="317" fill="transparent" width="10" height="37"></rect></svg>