<svg xmlns:mydata="http://www.w3.org/2000/svg" mydata:contrastcolor="cdbea7" mydata:template="Contrast" mydata:presentation="2.5" mydata:layouttype="undefined" mydata:specialfontid="undefined" mydata:id1="826" mydata:id2="826" mydata:companyname="Flash Delivery" mydata:companytagline="" version="1.1" xmlns="http://www.w3.org/2000/svg" xmlns:xlink="http://www.w3.org/1999/xlink" viewBox="0 0 550 470"><g fill="none" fill-rule="none" stroke="none" stroke-width="1" stroke-linecap="butt" stroke-linejoin="miter" stroke-miterlimit="10" stroke-dasharray="" stroke-dashoffset="0" font-family="none" font-weight="none" font-size="none" text-anchor="none" style="mix-blend-mode: normal"><g data-paper-data="{&quot;isGlobalGroup&quot;:true}"><g data-paper-data="{&quot;stacked&quot;:true,&quot;isPrimaryText&quot;:true}" fill-rule="nonzero"><path d="M269.70095,213.87675c-0.07789,0 -0.15579,0 -0.15579,0c0,3.81681 0,7.55572 0,11.29463c0,11.45042 -0.07789,16.04617 -0.07789,16.04617c0,1.2463 0.31158,1.71367 1.3242,1.71367c0,0 1.71367,-0.07789 4.20628,-0.07789c2.18103,0 4.36206,0.07789 6.4652,0.07789c4.59575,0 3.34944,3.19365 3.73891,-22.90084c0,-2.72629 -0.93473,-1.09052 13.94303,-2.33682c2.02524,-0.15579 2.80418,-0.31158 2.80418,-5.37469c0,-6.77678 -1.16841,-6.77678 -5.06311,-6.85467c-2.33682,-0.07789 -4.67364,-0.15579 -7.08835,-0.15579c-1.63577,0 -3.58312,0.07789 -3.58312,0.07789c-1.16841,0 -1.09052,0.07789 -1.09052,-5.99784c0,-3.97259 -0.15579,-3.97259 1.2463,-3.97259c2.49261,0 8.64624,0.23368 13.94303,0.23368c11.37253,0 10.90516,-0.31158 11.37253,-2.25893c0.23368,-1.01262 0.23368,-1.40209 0.23368,-5.84205c0,-3.81681 0.15579,-5.06311 -2.49261,-5.06311c0,0 -8.10098,0.62315 -35.67546,0.62315c-1.47999,0 -2.80418,-0.15579 -2.80418,-0.15579c-0.77894,0 -1.2463,0.54526 -1.2463,1.40209c-0.15579,2.95997 -0.31158,5.91994 -0.31158,8.95781c0,4.75153 0.23368,15.34512 0.31158,20.56402z" data-paper-data="{&quot;glyphName&quot;:&quot;F&quot;,&quot;glyphIndex&quot;:0,&quot;firstGlyphOfWord&quot;:true,&quot;word&quot;:1,&quot;line&quot;:1,&quot;firstGlyphOfFirstLine&quot;:true}" fill="#882426" id="path-id-72528" data-original-fill="#882426"></path><path d="M331.62669,207.17787c0.07789,-2.33682 0.38947,-16.27985 0.38947,-18.61667c0,-5.53047 0.31158,-5.76416 -4.12838,-5.76416c-2.41471,0 -4.82943,0.23368 -7.16625,0.23368c-1.3242,0 -2.72629,-0.07789 -2.72629,-0.07789c-1.09052,0 -1.40209,0.38947 -1.40209,1.55788c0,0 0.62315,8.02308 0.62315,39.95963c0,3.27155 0,6.62099 0,9.89254c0,3.19365 0,5.06311 0,5.06311c0,1.3242 -0.15579,1.63577 -0.15579,2.33682c0,0.85683 0.46736,1.01262 1.79156,1.01262c1.55788,0 3.50523,0 5.2189,0c2.25893,0 3.66102,0.07789 8.80202,0.07789c29.05447,0 26.95133,1.2463 26.95133,-5.141c0,-8.64624 3.19365,-7.39993 -25.54924,-7.39993c-0.23368,0 -0.54526,0 -0.77894,0c-1.94735,0 -1.86946,0 -1.86946,-1.55788c0,0 0,0.62315 0,-16.903c0,-1.55788 0,-3.11576 0,-4.67364z" data-paper-data="{&quot;glyphName&quot;:&quot;L&quot;,&quot;glyphIndex&quot;:1,&quot;word&quot;:1,&quot;line&quot;:1}" fill="#882426" id="path-id-94260" data-original-fill="#882426"></path><path d="M400.09553,242.77543v0c36.61019,0 35.20809,0.85683 35.20809,-2.25893c0,0 -0.07789,-0.46736 -0.07789,-2.72629c0,-8.72413 0.38947,-11.99568 0.38947,-22.04401c0,-10.04833 0.23368,-9.97043 -2.72629,-9.97043c-8.25677,0 -10.4378,-0.38947 -22.97873,-0.38947c-1.40209,0 -1.47999,-0.23368 -1.47999,-2.49261c0,-1.79156 0.23368,-3.66102 0.62315,-5.45258c0.31158,-1.63577 0.54526,-1.94735 2.25893,-2.02524c4.28417,-0.31158 8.49045,-0.70105 12.77462,-0.70105c13.24198,0 12.30725,0.70105 12.30725,-4.12838c0,-1.63577 -0.07789,-3.19365 -0.31158,-4.75153c-0.62315,-4.28417 0.31158,-2.18103 -17.44826,-3.19365c-7.8673,-0.46736 -15.73459,-0.15579 -23.60189,0.31158c-2.49261,0.15579 -2.88208,0.54526 -2.88208,3.58312c0,31.31339 0.15579,32.09233 2.95997,32.09233c0,0 2.41471,-0.07789 6.30941,-0.07789c2.41471,0 4.90732,0 7.39993,0c5.76416,0 9.65886,-0.31158 9.65886,-0.31158c1.3242,0 1.16841,-0.23368 1.16841,10.67148c0,2.5705 4.51785,1.79156 -52.26688,1.79156c-0.31158,0 -0.62315,0.07789 -1.01262,0.07789c-0.77894,0 -1.79156,-0.31158 -1.79156,1.09052c0,11.52831 -0.62315,10.90516 3.34944,10.90516zM385.84092,226.18401c2.72629,0 1.47999,-16.82511 1.47999,-18.46088c0,-3.11576 0,-6.15363 0,-9.26939c0,-10.28201 0.38947,-9.34728 -1.55788,-9.34728c-21.81032,0 -20.71981,0.23368 -20.71981,1.09052c-0.70105,8.02308 -0.54526,8.95781 1.2463,8.95781c-0.07789,0 1.47999,0 5.60837,0c1.01262,0 1.47999,-0.54526 1.55788,-1.55788c0.31158,-2.33682 0.31158,-1.79156 3.8947,-1.79156c0.85683,0 1.16841,0.38947 1.16841,1.2463c0,0 -0.07789,1.2463 -0.07789,3.03787c0,1.16841 0,2.88208 0,3.50523c0,1.63577 0.54526,1.2463 -11.45042,1.47999c-2.02524,0 -2.18103,-2.49261 -2.18103,19.16193c0,1.94735 -1.16841,1.94735 21.03138,1.94735zM374.93576,212.47466c4.28417,0 3.73891,-0.54526 3.73891,2.41471c0,2.88208 0.23368,3.03787 -3.50523,3.03787c-1.01262,0 -1.2463,-0.07789 -1.2463,-2.18103c0,-0.07789 0,-0.38947 0,-0.31158c-0.31158,-2.72629 -0.31158,-2.95997 1.01262,-2.95997z" data-paper-data="{&quot;glyphName&quot;:&quot;&quot;,&quot;glyphIndex&quot;:2,&quot;word&quot;:1,&quot;line&quot;:1}" fill="#882426" id="path-id-26344" data-original-fill="#882426"></path><path d="M484.92211,212.55255c0.07789,0 0.07789,0 0.07789,0c0,-3.27155 0,-6.5431 0,-9.81465c0,-22.43348 -0.07789,-20.33034 -3.73891,-20.33034c-5.84205,0 -7.7894,0.15579 -9.81465,0.62315c-2.5705,0.62315 -2.10314,-0.54526 -2.10314,21.49875c0,0.15579 0,0.38947 0,0.38947c0,0.62315 -0.23368,0.93473 -0.93473,0.93473c0,0 -0.85683,0 -2.02524,0c-4.43996,0 -8.64624,0 -8.64624,0c-0.54526,0 -0.85683,-0.23368 -0.85683,-0.77894c0,0 0,-0.07789 0,-0.15579c0,-24.6924 -0.23368,-22.43348 -3.66102,-22.43348c-7.63361,0 -11.99568,-0.07789 -11.99568,2.6484v0.07789c0,0 -0.15579,0.23368 -0.15579,17.75983c0,41.98487 0.15579,39.80384 2.72629,39.80384c2.25893,0 8.80202,-0.31158 11.06095,-0.38947c2.25893,-0.15579 1.79156,0.15579 2.02524,-22.1219c0,-1.47999 0,-1.55788 1.47999,-1.55788c0,0 0.93473,0 1.79156,0c4.82943,0 7.94519,0 7.94519,0c1.79156,0 1.3242,-1.79156 1.71367,21.42085c0.07789,2.10314 0.46736,2.6484 2.41471,2.6484c2.25893,0 9.73675,-0.31158 10.74937,-0.38947c1.71367,-0.07789 1.94735,-1.16841 1.94735,-2.95997c0,-0.07789 0,-0.23368 0,-0.38947c0,0 0,-5.37469 0,-17.60405c0,-2.95997 0,-5.91994 0,-8.87992z" data-paper-data="{&quot;glyphName&quot;:&quot;H&quot;,&quot;glyphIndex&quot;:3,&quot;lastGlyphOfWord&quot;:true,&quot;word&quot;:1,&quot;line&quot;:1,&quot;lastGlyphOfFirstLine&quot;:true}" fill="#882426" id="path-id-54449" data-original-fill="#882426"></path><path d="M269.71827,267.91149c0,0.09397 -0.32889,11.04129 -0.32889,12.07495c0,7.51748 0.51683,7.37652 2.30223,7.42351c3.19493,0.04698 5.30922,0.23492 7.7524,0.23492c7.00065,0 16.53845,-1.87937 16.86734,-8.59811c0.18794,-3.19493 0.32889,-6.38985 0.32889,-9.5378c0,-12.77971 0.98667,-18.98163 -17.47813,-18.98163c-11.13526,0 -9.44383,-1.12762 -9.44383,10.52447c0,2.30223 0,4.55747 0,6.8597zM279.53797,263.401c0,-5.02731 -0.14095,-4.93334 0.56381,-4.93334c4.79239,0 5.49715,2.34921 5.82604,4.65144c0.32889,2.58413 0.61079,5.3562 0.61079,7.98732c0,4.22858 -0.75175,7.42351 -6.57779,7.42351c-0.56381,0 -0.42286,0.37587 -0.42286,-9.34986c0,-0.23492 0,-0.46984 0,-0.65778v0c0,-1.69143 0,-3.38286 0,-5.12128z" data-paper-data="{&quot;glyphName&quot;:&quot;D&quot;,&quot;glyphIndex&quot;:4,&quot;firstGlyphOfWord&quot;:true,&quot;word&quot;:2,&quot;line&quot;:2,&quot;firstGlyphOfSecondLine&quot;:true}" fill="#323030" id="path-id-48440" data-original-fill="#323030"></path><path d="M299.64722,269.50895c-0.04698,0 -0.04698,0 -0.04698,0c0,0.32889 0,0.65778 0,1.03365c0,0.84572 -0.09397,14.80003 -0.09397,15.41083c0,0.84572 0.18794,1.08064 0.93968,1.08064c0,0 1.17461,-0.04698 2.34921,-0.04698c3.99366,0 7.98732,0.04698 11.93399,0.04698c11.41717,0 10.7124,0.56381 10.7124,-2.81905c0,-1.12762 -0.04698,-2.25524 -0.09397,-3.42985c-0.04698,-1.55048 -1.22159,-1.5035 -2.20826,-1.5035c0,0 -8.83303,0.23492 -13.3905,0.23492c-0.79873,0 -0.79873,-0.09397 -0.79873,-0.93968c0,-7.04763 -0.14095,-6.38985 0.98667,-6.38985c9.58478,-0.14095 9.16192,-0.18794 9.16192,-3.66477c0,-4.41652 -0.09397,-4.1816 -7.32954,-4.1816c-1.03365,0 -2.20826,0.04698 -2.20826,0.04698c-0.70476,0 -0.61079,0.23492 -0.61079,-5.30922c0,-0.51683 0.18794,-0.70476 0.65778,-0.70476c0,0 0.23492,0 0.42286,0c0.14095,0 0.23492,0 0.37587,0c0,0 4.22858,0.14095 7.09462,0.14095c7.56446,0 7.1416,-0.18794 7.47049,-1.31556c0.14095,-0.61079 0.14095,-0.75175 0.14095,-3.61779c0,-2.30223 0.09397,-3.00699 -1.55048,-3.00699c0,0 -5.40319,0.37587 -21.37782,0.37587c-0.93968,0 -1.7854,-0.09397 -1.7854,-0.09397c-0.46984,0 -0.75175,0.32889 -0.75175,0.8927c-0.09397,1.87937 -0.18794,3.71175 -0.18794,5.54414c0,2.96001 0.14095,9.06796 0.18794,12.2159z" data-paper-data="{&quot;glyphName&quot;:&quot;E&quot;,&quot;glyphIndex&quot;:5,&quot;word&quot;:2,&quot;line&quot;:2}" fill="#323030" id="path-id-94227" data-original-fill="#323030"></path><path d="M337.37556,265.46831c0.04698,-1.40953 0.23492,-9.8197 0.23492,-11.22923c0,-3.33588 0.18794,-3.47683 -2.49016,-3.47683c-1.45651,0 -2.91302,0.14095 -4.32255,0.14095c-0.79873,0 -1.64445,-0.04698 -1.64445,-0.04698c-0.65778,0 -0.84572,0.23492 -0.84572,0.93968c0,0 0.37587,4.83938 0.37587,24.10291c0,1.97334 0,3.99366 0,5.967c0,1.92635 0,3.05397 0,3.05397c0,0.79873 -0.09397,0.98667 -0.09397,1.40953c0,0.51683 0.28191,0.61079 1.08064,0.61079c0.93968,0 2.11429,0 3.14794,0c1.36254,0 2.20826,0.04698 5.30922,0.04698c17.52512,0 16.25654,0.75175 16.25654,-3.10096c0,-5.21525 1.92635,-4.4635 -15.41083,-4.4635c-0.14095,0 -0.32889,0 -0.46984,0c-1.17461,0 -1.12762,0 -1.12762,-0.93968c0,0 0,0.37587 0,-10.19558c0,-0.93968 0,-1.87937 0,-2.81905z" data-paper-data="{&quot;glyphName&quot;:&quot;L&quot;,&quot;glyphIndex&quot;:6,&quot;word&quot;:2,&quot;line&quot;:2}" fill="#323030" id="path-id-64870" data-original-fill="#323030"></path><path d="M357.90766,250.71526c-1.31556,0.04698 -0.28191,34.01658 -0.28191,34.11055c0,0.32889 0,0.61079 0,0.93968c0,0.84572 0.18794,1.45651 1.08064,1.45651c0,0 0.04698,0 0.09397,0c1.22159,0 2.3962,0.09397 3.5708,0.09397c4.98033,0 4.13461,-0.23492 4.22858,-7.98732c0.14095,-6.48382 0.28191,-12.96765 0.28191,-19.49845c0,-9.58478 0.84572,-9.25589 -5.21525,-9.25589c-1.59746,0 -3.75874,0.14095 -3.75874,0.14095z" data-paper-data="{&quot;glyphName&quot;:&quot;I&quot;,&quot;glyphIndex&quot;:7,&quot;word&quot;:2,&quot;line&quot;:2}" fill="#323030" id="path-id-42265" data-original-fill="#323030"></path><path d="M383.46708,267.5826c-0.23492,-0.14095 -4.41652,-15.5048 -4.51049,-15.73972c-0.32889,-1.22159 -0.65778,-1.26857 -6.2489,-1.26857c-1.08064,0 -2.96001,-0.09397 -2.96001,0.70476c0,1.12762 7.7524,30.91562 8.45716,34.72134c0.18794,1.03365 0.79873,0.75175 5.73208,0.75175c5.45017,0 4.13461,0.46984 4.98033,-2.81905c4.74541,-18.84068 7.98732,-31.2915 7.98732,-32.70102c0,-0.32889 -0.14095,-0.42286 -0.70476,-0.51683c-0.32889,-0.09397 -0.61079,-0.14095 -2.58413,-0.14095c-5.77906,0 -5.54414,-0.04698 -6.10795,2.02032c-2.3962,8.69208 -2.20826,8.08129 -4.04064,14.98797z" data-paper-data="{&quot;glyphName&quot;:&quot;V&quot;,&quot;glyphIndex&quot;:8,&quot;word&quot;:2,&quot;line&quot;:2}" fill="#323030" id="path-id-67880" data-original-fill="#323030"></path><path d="M399.91156,269.50895c-0.04698,0 -0.04698,0 -0.04698,0c0,0.32889 0,0.65778 0,1.03365c0,0.84572 -0.09397,14.80003 -0.09397,15.41083c0,0.84572 0.18794,1.08064 0.93968,1.08064c0,0 1.17461,-0.04698 2.34921,-0.04698c3.99366,0 7.98732,0.04698 11.93399,0.04698c11.41717,0 10.7124,0.56381 10.7124,-2.81905c0,-1.12762 -0.04698,-2.25524 -0.09397,-3.42985c-0.04698,-1.55048 -1.22159,-1.5035 -2.20826,-1.5035c0,0 -8.83303,0.23492 -13.3905,0.23492c-0.79873,0 -0.79873,-0.09397 -0.79873,-0.93968c0,-7.04763 -0.14095,-6.38985 0.98667,-6.38985c9.58478,-0.14095 9.16192,-0.18794 9.16192,-3.66477c0,-4.41652 -0.09397,-4.1816 -7.32954,-4.1816c-1.03365,0 -2.20826,0.04698 -2.20826,0.04698c-0.70476,0 -0.61079,0.23492 -0.61079,-5.30922c0,-0.51683 0.18794,-0.70476 0.65778,-0.70476c0,0 0.23492,0 0.42286,0c0.14095,0 0.23492,0 0.37587,0c0,0 4.22858,0.14095 7.09462,0.14095c7.56446,0 7.1416,-0.18794 7.47049,-1.31556c0.14095,-0.61079 0.14095,-0.75175 0.14095,-3.61779c0,-2.30223 0.09397,-3.00699 -1.55048,-3.00699c0,0 -5.40319,0.37587 -21.37782,0.37587c-0.93968,0 -1.7854,-0.09397 -1.7854,-0.09397c-0.46984,0 -0.75175,0.32889 -0.75175,0.8927c-0.09397,1.87937 -0.18794,3.71175 -0.18794,5.54414c0,2.96001 0.14095,9.06796 0.18794,12.2159z" data-paper-data="{&quot;glyphName&quot;:&quot;E&quot;,&quot;glyphIndex&quot;:9,&quot;word&quot;:2,&quot;line&quot;:2}" fill="#323030" id="path-id-38534" data-original-fill="#323030"></path><path d="M447.36563,272.28102c5.30922,-1.92635 8.50415,-5.21525 8.50415,-10.99431c0,-5.26223 -4.41652,-10.66542 -13.57844,-10.66542c0,0 -0.28191,0.09397 -12.16892,0.32889c-1.69143,0.04698 -1.55048,-1.87937 -1.55048,29.97594c0,1.22159 0.09397,2.3962 0.09397,3.61779c0,0.65778 -0.04698,1.36254 -0.04698,1.36254c0,0.70476 0.28191,1.03365 0.84572,1.03365c0,0 1.5035,-0.18794 3.66477,-0.18794c1.08064,0 2.11429,0 3.19493,0c1.12762,0 1.83238,0.04698 1.83238,-1.17461c0,0 -0.09397,-1.55048 -0.09397,-3.75874c0,-1.83238 0.04698,-3.71175 0.04698,-5.54414c0,-0.84572 -0.04698,-0.98667 -0.04698,-0.98667c0,-0.18794 0.04698,-0.37587 0.23492,-0.56381c9.86669,13.62543 5.59112,12.16892 16.44448,12.16892c0.61079,0 0.93968,-0.14095 0.93968,-0.51683c0,-0.46984 0.23492,0.04698 -8.31621,-14.09527zM439.94213,264.38767c-0.75175,0 -1.26857,0 -1.26857,0c-0.46984,0 -0.70476,-0.18794 -0.70476,-0.70476c0,0 0,-0.04698 0,-0.09397c0,-1.97334 -0.04698,-3.85271 -0.04698,-3.85271c0,-0.84572 0.23492,-0.70476 5.3562,-0.70476c0.32889,0 0.61079,0 0.93968,0c0.79873,0 2.30223,0.98667 2.30223,3.00699c0,1.17461 -0.70476,2.30223 -2.02032,2.30223c0.14095,0 -4.41652,0.04698 -4.55747,0.04698z" data-paper-data="{&quot;glyphName&quot;:&quot;R&quot;,&quot;glyphIndex&quot;:10,&quot;word&quot;:2,&quot;line&quot;:2}" fill="#323030" id="path-id-74754" data-original-fill="#323030"></path><path d="M471.79743,270.5426c-0.61079,-0.46984 -1.36254,-2.34921 -3.14794,-5.49715c-0.70476,-1.22159 -0.42286,-1.45651 -0.42286,-6.62478c0,-8.22224 -0.04698,-7.65843 -0.84572,-7.65843c-0.65778,0 -5.967,0.18794 -7.42351,0.23492c-1.5035,0.04698 -1.26857,-1.45651 -1.26857,13.15558c0,0.70476 -0.56381,-0.18794 7.70541,10.80637c0.70476,0.8927 0.51683,1.55048 0.51683,3.75874c0,8.83303 0.09397,8.26922 1.5035,8.31621c0.93968,0 1.92635,0.04698 2.86604,0.04698c5.02731,0 5.73208,0.09397 5.73208,-1.08064c0,-0.09397 -0.37587,-8.55113 -0.37587,-8.6451c0,-3.05397 8.36319,-10.7124 8.36319,-13.67241c0,-0.46984 -0.04698,-0.51683 -0.04698,-1.17461c0,-11.84003 0.28191,-12.12193 -1.36254,-12.12193c-0.14095,0 -3.42985,0.09397 -6.81271,0.28191c-1.08064,0.04698 -1.17461,0.09397 -1.17461,1.08064l0.09397,12.16892c0,0.61079 0.23492,0.09397 -3.89969,6.62478z" data-paper-data="{&quot;glyphName&quot;:&quot;Y&quot;,&quot;glyphIndex&quot;:11,&quot;lastGlyphOfWord&quot;:true,&quot;word&quot;:2,&quot;line&quot;:2,&quot;lastGlyphOfSecondLine&quot;:true}" fill="#323030" id="path-id-24084" data-original-fill="#323030"></path></g><g data-paper-data="{&quot;fillRule&quot;:&quot;evenodd&quot;,&quot;isIcon&quot;:&quot;true&quot;,&quot;iconType&quot;:&quot;icon&quot;,&quot;rawIconId&quot;:&quot;157109&quot;,&quot;selectedEffects&quot;:{&quot;container&quot;:&quot;&quot;,&quot;transformation&quot;:&quot;&quot;,&quot;pattern&quot;:&quot;&quot;},&quot;bounds&quot;:{&quot;x&quot;:65,&quot;y&quot;:190.2518682882085,&quot;width&quot;:178.82948353221647,&quot;height&quot;:89.49626342358303},&quot;iconStyle&quot;:&quot;standalone&quot;}" fill="#882426" fill-rule="evenodd"><path d="M233.52946,208.29232c-0.75574,-1.88738 -2.58346,-3.12441 -4.61602,-3.12441h-19.88807v-9.94403c0,-2.74654 -2.22547,-4.97201 -4.97201,-4.97201h-83.72874c-2.74654,0 -4.97201,2.22547 -4.97201,4.97201v9.94403h-25.6556c-6.41191,0 -6.41191,9.94403 0,9.94403h25.6556v9.94403h-35.59963c-6.41191,0 -6.41191,9.94403 0,9.94403h35.59963v29.83209c0,2.74654 2.22547,4.97201 4.97201,4.97201h10.69382c1.92118,5.76953 7.36256,9.94403 13.7685,9.94403c6.40595,0 11.84732,-4.17451 13.7685,-9.94403h42.07121c1.92118,5.76953 7.36256,9.94403 13.7685,9.94403c6.40595,0 11.84732,-4.17451 13.7685,-9.94403h10.69382c2.74654,0 4.97201,-2.22547 4.97201,-4.97201v-29.83209c0,-0.63244 -0.12132,-1.25891 -0.356,-1.8476zM199.08134,259.86009h-40.81826c-2.13995,-5.35187 -7.36853,-9.14851 -13.47615,-9.14851c-6.10763,0 -11.3362,3.79465 -13.47814,9.14851h-6.01216v-24.86008h14.12053c6.41191,0 6.41191,-9.94403 0,-9.94403h-14.12053v-9.94403h34.00858c6.41191,0 6.41191,-9.94403 0,-9.94403h-34.00858v-4.97201h73.78472zM233.88546,259.86009h-6.01415c-2.13995,-5.35187 -7.36853,-9.14851 -13.47615,-9.14851c-1.89732,0 -3.70714,0.37588 -5.36978,1.04214v-36.64177h16.523l1.98881,4.97201h-8.56777c-2.74654,0 -4.97201,2.22547 -4.97201,4.97201v9.94403c0,2.74654 2.22547,4.97201 4.97201,4.97201h14.91605zM104.61304,244.94404h-34.80411c-6.41191,0 -6.41191,9.94403 0,9.94403h34.80411c2.74654,0 4.97201,-2.22547 4.97201,-4.97201c0,-2.74654 -2.22547,-4.97201 -4.97201,-4.97201zM144.78693,269.80412c-2.52379,0 -4.57425,-2.05046 -4.57425,-4.57425c0,-2.52379 2.05244,-4.57425 4.57425,-4.57425c2.52181,0 4.57425,2.05046 4.57425,4.57425c0,2.52379 -2.05244,4.57425 -4.57425,4.57425zM214.39515,269.80412c-2.52379,0 -4.57425,-2.05046 -4.57425,-4.57425c0,-2.52379 2.05244,-4.57425 4.57425,-4.57425c2.52181,0 4.57425,2.05046 4.57425,4.57425c0,2.52379 -2.05244,4.57425 -4.57425,4.57425z" data-paper-data="{&quot;isPathIcon&quot;:true}" id="path-id-8509"></path></g></g></g><rect data-path-id="path-id-8509" class="invisible-bbox" x="65" y="190" fill="transparent" width="179" height="89"></rect><rect data-path-id="path-id-26344" class="invisible-bbox" x="365" y="182" fill="transparent" width="72" height="60"></rect><rect data-path-id="path-id-54449" class="invisible-bbox" x="441" y="182" fill="transparent" width="44" height="60"></rect><rect data-path-id="path-id-72528" class="invisible-bbox" x="269" y="182" fill="transparent" width="43" height="61"></rect><rect data-path-id="path-id-94260" class="invisible-bbox" x="317" y="183" fill="transparent" width="43" height="60"></rect><rect data-path-id="path-id-48440" class="invisible-bbox" x="269" y="250" fill="transparent" width="27" height="37"></rect><rect data-path-id="path-id-67880" class="invisible-bbox" x="370" y="251" fill="transparent" width="27" height="36"></rect><rect data-path-id="path-id-74754" class="invisible-bbox" x="429" y="251" fill="transparent" width="27" height="36"></rect><rect data-path-id="path-id-24084" class="invisible-bbox" x="459" y="250" fill="transparent" width="26" height="37"></rect><rect data-path-id="path-id-94227" class="invisible-bbox" x="299" y="251" fill="transparent" width="26" height="36"></rect><rect data-path-id="path-id-64870" class="invisible-bbox" x="328" y="251" fill="transparent" width="26" height="36"></rect><rect data-path-id="path-id-38534" class="invisible-bbox" x="400" y="251" fill="transparent" width="26" height="36"></rect><rect data-path-id="path-id-42265" class="invisible-bbox" x="357" y="251" fill="transparent" width="10" height="37"></rect></svg>